<?xml version="1.0" standalone="no"?>
<!DOCTYPE svg PUBLIC "-//W3C//DTD SVG 20010904//EN"
 "http://www.w3.org/TR/2001/REC-SVG-20010904/DTD/svg10.dtd">
<svg version="1.0" xmlns="http://www.w3.org/2000/svg"
 width="708.000000pt" height="708.000000pt" viewBox="0 0 708.000000 708.000000"
 preserveAspectRatio="xMidYMid meet">
<metadata>
Created by potrace 1.11, written by Peter Selinger 2001-2013
</metadata>
<g transform="translate(0.000000,708.000000) scale(0.100000,-0.100000)"
fill="#000000" stroke="none">
<path d="M3405 6497 c-130 -133 -214 -206 -420 -367 -539 -420 -752 -971 -604
-1562 18 -74 84 -272 110 -333 7 -16 13 -32 14 -35 5 -14 199 -458 266 -607
10 -24 19 -47 19 -51 0 -5 12 -37 26 -72 30 -73 90 -279 98 -336 4 -22 10 -60
14 -85 l8 -44 177 -3 177 -2 -5 27 c-56 335 -136 588 -303 953 -128 281 -185
418 -229 550 -102 311 -93 574 29 830 101 210 227 354 478 543 31 23 175 142
195 160 43 40 95 78 95 70 0 -10 159 -144 315 -266 298 -231 463 -477 518
-772 15 -77 16 -260 2 -330 -41 -208 -94 -353 -283 -775 -184 -410 -268 -675
-306 -958 l-4 -32 176 2 175 3 4 30 c18 148 103 421 201 650 57 134 70 163
142 320 100 218 186 459 220 615 82 380 14 740 -203 1073 -118 181 -211 276
-482 491 -127 102 -251 211 -341 303 -78 79 -143 143 -145 143 -2 0 -62 -60
-134 -133z"/>
<path d="M1068 4685 c-2 -2 -23 -6 -48 -9 -349 -46 -668 -304 -804 -649 -54
-136 -69 -220 -70 -382 -1 -137 6 -214 19 -236 3 -4 15 -6 28 -3 12 2 33 6 47
9 14 3 74 16 135 30 60 14 114 25 119 25 5 0 5 23 1 53 -53 370 188 729 540
806 17 3 84 6 150 6 163 -1 263 -33 411 -131 62 -41 202 -175 255 -244 137
-177 266 -439 332 -675 32 -113 61 -245 59 -267 -1 -17 14 -18 175 -18 l175 0
-5 58 c-21 208 -119 519 -243 764 -232 462 -570 762 -950 843 -65 14 -316 29
-326 20z"/>
<path d="M5732 4675 c-482 -85 -876 -483 -1118 -1130 -10 -27 -19 -52 -19 -55
-1 -3 -13 -43 -28 -90 -27 -85 -72 -294 -79 -360 l-3 -35 175 -3 176 -2 2 23
c1 13 9 57 17 98 9 40 18 83 20 93 12 57 71 228 110 323 185 441 485 739 800
794 91 16 241 6 325 -21 278 -91 482 -378 481 -677 0 -67 -9 -141 -18 -155 -2
-5 2 -8 9 -9 19 -1 44 -6 192 -39 159 -35 143 -33 143 -17 1 6 5 39 11 72 10
58 8 275 -2 325 -51 238 -145 419 -299 574 -89 90 -163 143 -272 199 -68 34
-203 79 -275 92 -69 13 -276 12 -348 0z"/>
<path d="M1570 2535 c0 -121 3 -164 13 -167 6 -2 892 -4 1967 -4 l1955 1 0
165 0 165 -1967 1 -1968 1 0 -162z"/>
<path d="M2925 2060 c-2 -3 -11 -34 -20 -70 -45 -177 -138 -373 -252 -538
l-65 -93 27 -62 c131 -304 438 -616 770 -785 141 -72 153 -75 194 -56 324 147
590 368 779 646 32 47 132 239 132 253 0 5 -17 31 -38 59 -61 82 -128 194
-175 296 -44 94 -102 258 -111 314 -3 16 -8 31 -11 35 -4 3 -83 6 -177 6
l-170 0 7 -55 c20 -158 129 -441 245 -637 l31 -51 -66 -87 c-108 -141 -214
-239 -365 -339 -52 -35 -102 -65 -111 -69 -20 -7 -177 92 -264 166 -111 95
-222 217 -273 299 l-22 36 42 68 c90 148 170 348 214 531 36 153 52 138 -147
138 -94 0 -172 -2 -174 -5z"/>
</g>
</svg>
